<svg width="16" height="16.715447154472" viewBox="0 0 246 257" fill="none" xmlns="http://www.w3.org/2000/svg">
<path d="M17.7894 0.231805C17.8298 0.232198 17.8689 0.246285 17.9003 0.27176C17.9317 0.297235 17.9535 0.332598 17.9622 0.372075C17.9709 0.411552 17.966 0.452811 17.9482 0.489118C17.9304 0.525425 17.9008 0.554634 17.8643 0.571979C16.888 1.09857 15.9732 1.76738 15.1199 2.57841C10.5997 6.86802 6.34465 11.4056 2.35484 16.191C2.33683 16.2145 2.31175 16.2316 2.28331 16.2398C2.25487 16.2479 2.22455 16.2468 2.19681 16.2365C2.16907 16.2262 2.14537 16.2072 2.12919 16.1824C2.11301 16.1576 2.10521 16.1283 2.10692 16.0988C2.19533 12.7701 2.23761 9.42603 2.23377 6.0666C2.228 1.81735 3.57716 0.145323 7.76299 0.0357768C11.084 -0.0487855 14.4261 0.0165559 17.7894 0.231805Z" fill="#76E494"/>
<path d="M87.3624 9.80218C59.3761 17.5396 37.3457 35.3554 23.3065 60.9259C12.4614 80.6731 7.8085 102.865 1.59317 124.613C1.58121 124.667 1.54922 124.714 1.50363 124.746C1.45805 124.777 1.40224 124.79 1.34746 124.782C1.29267 124.774 1.24296 124.746 1.20832 124.703C1.17368 124.659 1.15668 124.605 1.16075 124.549C1.33372 100.315 1.5432 76.0222 1.7892 51.6721C1.79689 50.8034 2.00253 49.9943 2.40612 49.2447C13.3031 28.8883 28.6185 12.6792 48.3523 0.617559C48.5146 0.519536 48.7 0.467701 48.8885 0.467651C58.2941 0.494558 67.669 0.548369 77.0132 0.629088C79.6884 0.65215 81.6891 0.559898 83.1362 2.69894C84.6391 4.92062 86.1036 7.14039 87.5296 9.35822C87.5549 9.39692 87.5707 9.44102 87.5757 9.48695C87.5807 9.53288 87.5749 9.57934 87.5586 9.62258C87.5423 9.66582 87.516 9.70463 87.482 9.73583C87.4479 9.76703 87.4069 9.78976 87.3624 9.80218Z" fill="#76E494"/>
<path d="M175.18 1.60468C181.399 1.60852 187.626 1.67194 193.86 1.79494C194.041 1.79878 194.21 1.85067 194.368 1.95061C216.75 16.3243 238.014 38.1529 244.95 64.3057C245.342 65.7855 245.53 67.3769 245.515 69.0796C245.234 101.563 244.94 134.048 244.632 166.536C244.617 168.066 244.571 169.221 244.494 170.001C244.463 170.301 244.369 170.322 244.212 170.064C237.904 159.721 235.108 148.345 233.234 136.537C230.143 117.107 227.953 97.3427 223.692 78.1317C221.276 67.2289 218.036 58.4536 211.348 49.7994C199.34 34.2476 184.436 22.3224 166.635 14.0238C166.462 13.9392 166.376 13.8009 166.376 13.6087C166.376 10.9738 165.799 5.63484 167.2 3.55345C169.051 0.791723 172.332 1.60468 175.18 1.60468Z" fill="#76E494"/>
<path d="M232.259 2.57304C233.902 2.60172 235.236 2.4985 235.239 2.34249C235.241 2.18649 233.912 2.03677 232.269 2.0081C230.626 1.97942 229.292 2.08264 229.29 2.23865C229.287 2.39465 230.616 2.54437 232.259 2.57304Z" fill="#76E494"/>
<path d="M237.277 30.5593C234.74 24.0442 238.597 16.4278 245.591 14.727C245.867 14.6578 246.004 14.7654 246 15.0498L245.81 42.1425C245.806 42.4653 245.714 42.4922 245.533 42.2232C243.957 39.8939 242.283 37.6395 240.511 35.4601C238.82 33.3768 237.742 31.7432 237.277 30.5593Z" fill="#76E494"/>
<path d="M18.4053 126.694C24.0498 80.1829 48.4787 37.7826 96.5524 25.1963C96.8038 25.1312 97.0696 25.1475 97.3118 25.2427C97.5541 25.338 97.7604 25.5073 97.9015 25.7267L111.335 46.875C111.366 46.925 111.353 46.9538 111.295 46.9615C71.57 52.0698 50.0297 84.5072 43.5145 121.176C42.4191 127.334 41.4965 136.922 39.4382 144.758C32.7789 170.115 16.8082 194.976 0.722144 215.265C0.433864 215.631 0.291642 215.581 0.295486 215.116C0.406955 201.021 0.526112 187.229 0.652956 173.742C0.660643 173.338 0.941236 172.671 1.49473 171.741C9.91829 157.615 16.4219 142.994 18.4053 126.694Z" fill="#76E494"/>
<path d="M243.602 236.172C226.023 225.782 213.598 208.237 205.093 190.26C193.43 165.606 194.052 136.571 189.866 110.326C186.972 92.21 180.405 75.6627 166.141 63.6933C165.972 63.5511 165.887 63.3685 165.887 63.1455L166.089 35.2457C166.09 35.2056 166.101 35.1663 166.121 35.1317C166.142 35.0972 166.171 35.0686 166.206 35.0488C166.241 35.029 166.28 35.0186 166.321 35.0188C166.361 35.019 166.4 35.0296 166.435 35.0497C189.017 47.4535 203.623 66.1533 210.254 91.1491C214.976 108.953 216.527 128.81 218.694 147.831C219.744 157.067 221.416 166.69 224.858 175.269C229.413 186.612 235.807 196.867 244.04 206.035C244.178 206.188 244.246 206.379 244.242 206.605L244.011 235.941C244.011 236.256 243.875 236.333 243.602 236.172Z" fill="#76E494"/>
<path d="M150.6 111.78C140.677 92.6785 119.489 80.761 100.237 96.651C86.8898 107.669 86.4919 122.273 83.8801 137.985C83.8455 138.185 83.7379 138.333 83.5572 138.429C81.8794 139.322 80.9166 140.429 80.784 142.47C80.5245 146.616 81.1011 151.125 80.1325 155.132C75.5623 174.02 68.2418 191.766 58.1712 208.371C48.3928 224.503 37.2017 239.5 25.7051 254.565C25.6206 254.675 25.5123 254.763 25.3884 254.824C25.2645 254.885 25.1283 254.917 24.9901 254.917C18.5634 254.867 12.0713 254.786 5.51391 254.675C3.93798 254.648 2.75795 254.373 1.97383 253.85C-0.228636 252.38 -0.643759 249.486 1.01097 247.33C12.8478 231.918 24.6673 216.414 35.1319 200.028C45.779 183.358 53.2455 165.552 57.5313 146.61C59.4262 138.235 61.1021 129.029 62.5589 118.993C64.7613 103.856 71.1765 91.1525 81.8045 80.8821C92.5343 70.5097 107.911 64.329 122.942 65.5801C123.138 65.5955 123.29 65.6858 123.398 65.8511C134.475 83.3132 145.543 100.771 156.602 118.226C158.579 121.345 163.117 121.633 164.829 118.139C165.183 117.421 165.364 116.287 165.371 114.738C165.402 106.735 165.498 98.7651 165.66 90.8277C165.663 90.4664 165.765 90.4357 165.965 90.7355C168.548 94.5869 171.264 98.8074 173.097 102.866C184.744 128.627 176.914 160.153 167.447 185.217C161.662 200.519 154.985 215.327 147.417 229.641C147.271 229.917 147.113 229.925 146.944 229.664L132.392 207.143C132.29 206.983 132.231 206.799 132.221 206.61C132.211 206.421 132.25 206.233 132.334 206.065C137.681 195.253 142.397 184.085 146.483 172.561C151.344 158.874 154.837 144.69 154.866 130.933C154.884 124.51 153.598 117.557 150.6 111.78Z" fill="#76E494"/>
<path d="M115.938 114.34C124.581 109.664 134.353 116.831 133.39 126.621C131.482 145.918 125.088 166.057 117.852 183.989C117.748 184.242 117.623 184.254 117.477 184.023L101.512 159.352C101.457 159.264 101.421 159.165 101.408 159.062C101.395 158.959 101.405 158.856 101.437 158.758C105.112 147.961 107.868 135.89 109.705 122.544C110.178 119.108 112.859 116.006 115.938 114.34Z" fill="#76E494"/>
<path d="M223.206 256.727L187.171 256.387C186.959 256.383 186.777 256.308 186.623 256.162C186.331 255.885 186.014 255.524 185.672 255.078C174.135 239.937 168.265 220.081 172.186 201.279C175.322 186.219 197.929 189.419 195.721 205.672C192.711 227.853 204.537 245.663 223.31 256.335C223.778 256.6 223.744 256.731 223.206 256.727Z" fill="#76E494"/>
<path d="M74.6164 255.319C67.6516 255.44 60.6579 255.14 53.7218 255.181C53.6776 255.18 53.6343 255.168 53.5964 255.146C53.5584 255.123 53.5273 255.09 53.5061 255.052C53.4849 255.013 53.4745 254.969 53.476 254.925C53.4774 254.881 53.4906 254.838 53.5143 254.8C62.5663 240.874 70.9572 226.576 78.6869 211.904C78.9406 211.42 79.3096 210.336 79.7075 209.753C79.7306 209.715 79.7661 209.685 79.8083 209.668C79.8505 209.652 79.8969 209.651 79.9401 209.664C79.9833 209.677 80.0208 209.705 80.0466 209.742C80.0724 209.779 80.0849 209.824 80.0822 209.869C79.9515 223.241 79.8132 236.608 79.6671 249.969C79.6267 253.463 78.0643 255.261 74.6164 255.319Z" fill="#76E494"/>
</svg>
